<?xml version="1.0" standalone="no"?>
<!DOCTYPE svg PUBLIC "-//W3C//DTD SVG 20010904//EN"
 "http://www.w3.org/TR/2001/REC-SVG-20010904/DTD/svg10.dtd">
<svg version="1.0" xmlns="http://www.w3.org/2000/svg"
 width="1024.000000pt" height="1024.000000pt" viewBox="0 0 1024.000000 1024.000000"
 preserveAspectRatio="xMidYMid meet">

<g transform="translate(0.000000,1024.000000) scale(0.100000,-0.100000)"
fill="#FF0000" stroke="none">
<path d="M5090 8419 c-58 -34 -77 -80 -110 -271 -16 -95 -41 -229 -55 -298
-34 -174 -73 -378 -105 -555 -15 -82 -41 -220 -58 -305 -18 -85 -59 -290 -92
-455 -73 -366 -100 -497 -104 -510 -2 -5 -77 64 -167 155 -231 233 -267 266
-273 249 -2 -8 -32 -122 -66 -254 -34 -132 -75 -287 -90 -345 -15 -58 -92
-367 -171 -687 -86 -350 -149 -583 -156 -583 -6 0 -18 19 -26 43 -39 108 -343
826 -357 840 -4 5 -22 1 -39 -7 -38 -20 -357 -222 -390 -248 -22 -16 -47 -18
-288 -18 -296 0 -318 -4 -347 -65 -20 -41 -20 -73 -1 -119 29 -70 35 -71 439
-71 l359 0 177 -445 c97 -245 195 -490 218 -545 22 -55 70 -174 106 -265 140
-354 227 -550 244 -550 10 0 216 819 322 1280 16 69 40 172 54 230 14 58 55
229 91 380 105 439 108 450 116 450 4 0 34 -30 66 -66 129 -146 338 -371 375
-402 l27 -23 10 38 c21 81 168 777 267 1268 36 176 67 321 69 323 2 2 8 -23
15 -55 6 -32 13 -64 15 -71 3 -7 16 -88 30 -180 14 -92 32 -207 41 -257 8 -49
20 -119 25 -155 5 -36 43 -269 85 -518 41 -250 73 -457 69 -460 -3 -3 -48 39
-99 94 -52 54 -96 97 -98 94 -3 -3 -25 -85 -51 -182 l-45 -178 226 -237 c124
-131 296 -310 382 -398 85 -88 196 -202 246 -254 l91 -94 20 64 c12 35 89 262
173 504 84 242 185 537 225 655 40 118 76 215 81 215 5 -1 79 -140 164 -310
85 -170 160 -310 166 -312 10 -3 44 65 126 252 22 50 43 94 48 99 5 5 186 11
402 13 216 1 407 5 423 8 81 15 120 109 75 183 -37 60 -50 62 -458 62 l-369 0
-232 473 c-244 494 -369 737 -381 737 -13 0 -48 -95 -215 -580 -23 -69 -79
-231 -124 -360 -45 -129 -115 -332 -156 -450 -101 -295 -106 -309 -115 -315
-8 -5 -24 77 -65 330 -14 88 -34 212 -45 275 -11 63 -49 295 -85 515 -35 220
-74 456 -85 525 -38 226 -60 358 -80 478 -34 201 -157 958 -224 1379 -27 172
-45 212 -107 243 -49 25 -95 25 -139 -1z"/>
</g>
<g transform="translate(0.000000,1024.000000) scale(0.100000,-0.100000)"
fill="#FFFFFF" stroke="none">
<path d="M3677 7530 c-64 -19 -337 -199 -477 -313 -174 -142 -402 -398 -541
-607 -158 -237 -289 -536 -354 -807 -29 -120 -30 -144 -10 -183 19 -37 43 -50
95 -50 65 0 102 43 125 145 94 422 324 834 650 1161 173 174 325 290 553 423
73 43 112 86 112 126 0 34 -39 85 -75 101 -38 16 -39 16 -78 4z"/>
<path d="M6430 7523 c-91 -28 -118 -124 -52 -185 15 -14 86 -64 157 -111 72
-47 168 -117 215 -154 108 -86 295 -273 384 -383 222 -277 395 -618 471 -925
39 -158 60 -185 141 -185 28 0 44 8 70 34 44 44 44 67 0 227 -127 461 -370
875 -721 1224 -142 142 -245 226 -415 339 -166 110 -211 132 -250 119z"/>
<path d="M3736 7086 c-413 -216 -769 -597 -976 -1047 -100 -218 -111 -275 -61
-331 25 -28 36 -33 75 -33 60 0 94 35 131 135 78 209 239 475 393 647 146 162
354 327 552 436 76 42 95 60 105 104 13 65 -45 133 -114 133 -11 0 -58 -20
-105 -44z"/>
<path d="M6451 6998 c-58 -31 -86 -121 -51 -163 8 -10 66 -57 129 -104 316
-237 558 -564 696 -941 45 -122 76 -160 129 -160 73 0 122 47 119 115 -2 53
-100 293 -175 430 -136 249 -312 469 -508 639 -210 180 -277 217 -339 184z"/>
</g>
<g transform="translate(0.000000,1024.000000) scale(0.100000,-0.100000)"
fill="#FF0000" stroke="none">
<path d="M4420 4585 c0 -40 100 -571 260 -1380 159 -809 180 -914 220 -1124
43 -230 54 -258 116 -299 41 -27 105 -28 151 -4 49 26 81 77 98 156 8 39 51
240 94 446 44 206 89 416 100 465 11 50 38 173 61 275 22 102 47 214 55 250 8
36 15 73 15 84 0 18 -62 90 -240 276 -73 76 -92 92 -100 80 -5 -8 -10 -18 -10
-21 0 -4 -24 -123 -54 -265 -47 -226 -73 -329 -75 -301 -1 4 -21 117 -46 250
-25 133 -59 314 -75 401 l-30 159 -47 51 c-83 90 -493 507 -493 501z"/>
</g>
<g transform="translate(0.000000,1024.000000) scale(0.100000,-0.100000)"
fill="#FFFFFF" stroke="none">
<path d="M2333 4540 c-61 -25 -67 -101 -19 -240 32 -91 60 -120 119 -120 49 0
81 19 103 62 17 33 16 41 -23 167 -31 104 -63 141 -120 140 -21 0 -48 -4 -60
-9z"/>
<path d="M2693 4505 c-39 -31 -48 -67 -32 -131 32 -129 194 -469 242 -510 44
-37 100 -33 143 10 52 52 47 81 -35 239 -38 73 -88 184 -110 247 -49 134 -78
170 -139 170 -24 0 -48 -9 -69 -25z"/>
<path d="M7644 4464 c-30 -31 -34 -42 -34 -89 0 -47 4 -58 34 -89 29 -31 39
-36 81 -36 42 0 52 5 86 39 35 35 39 44 39 91 0 46 -4 56 -34 86 -30 30 -40
34 -86 34 -47 0 -56 -4 -86 -36z"/>
<path d="M7292 4430 c-23 -14 -42 -40 -64 -88 -74 -165 -112 -242 -156 -317
-157 -271 -406 -520 -700 -700 -65 -40 -92 -75 -92 -120 0 -66 63 -122 125
-112 85 14 370 224 535 393 200 206 337 409 451 666 77 176 80 221 13 271 -37
28 -75 30 -112 7z"/>
<path d="M7510 4012 c-28 -14 -45 -37 -93 -132 -178 -348 -432 -641 -761 -879
-54 -39 -140 -96 -192 -127 -52 -31 -101 -66 -109 -77 -42 -60 0 -160 72 -173
46 -9 88 11 258 124 288 190 512 402 712 673 111 150 273 441 273 490 0 44
-25 84 -64 103 -43 20 -53 20 -96 -2z"/>
<path d="M2535 4011 c-33 -14 -56 -47 -62 -88 -6 -44 9 -79 109 -250 68 -117
97 -143 158 -143 36 0 48 6 76 36 51 53 47 85 -24 197 -32 51 -73 120 -91 154
-18 34 -41 69 -51 78 -22 20 -86 28 -115 16z"/>
<path d="M2983 3375 c-55 -24 -78 -97 -49 -153 17 -31 177 -190 286 -283 160
-137 443 -319 497 -319 110 0 163 126 81 195 -17 14 -52 37 -77 50 -137 69
-392 268 -546 425 -99 101 -127 114 -192 85z"/>
</g>
</svg>
